# Tiled2Unity generated file. Do not modify by hand.
# Wavefront file for 'Room1_mesh_0002.obj'

# Vertices (Count = 528)
v -384 -16 0
v -400 -16 0
v -400 0 0
v -384 0 0
v -368 -16 0
v -384 -16 0
v -384 0 0
v -368 0 0
v -352 -16 0
v -368 -16 0
v -368 0 0
v -352 0 0
v -336 -16 0
v -352 -16 0
v -352 0 0
v -336 0 0
v -320 -16 0
v -336 -16 0
v -336 0 0
v -320 0 0
v -304 -16 0
v -320 -16 0
v -320 0 0
v -304 0 0
v -288 -16 0
v -304 -16 0
v -304 0 0
v -288 0 0
v -272 -16 0
v -288 -16 0
v -288 0 0
v -272 0 0
v -208 -16 0
v -224 -16 0
v -224 0 0
v -208 0 0
v -192 -16 0
v -208 -16 0
v -208 0 0
v -192 0 0
v -176 -16 0
v -192 -16 0
v -192 0 0
v -176 0 0
v -160 -16 0
v -176 -16 0
v -176 0 0
v -160 0 0
v -144 -16 0
v -160 -16 0
v -160 0 0
v -144 0 0
v -128 -16 0
v -144 -16 0
v -144 0 0
v -128 0 0
v -112 -16 0
v -128 -16 0
v -128 0 0
v -112 0 0
v -96 -16 0
v -112 -16 0
v -112 0 0
v -96 0 0
v -80 -16 0
v -96 -16 0
v -96 0 0
v -80 0 0
v -64 -16 0
v -80 -16 0
v -80 0 0
v -64 0 0
v -48 -16 0
v -64 -16 0
v -64 0 0
v -48 0 0
v -32 -16 0
v -48 -16 0
v -48 0 0
v -32 0 0
v -16 -16 0
v -32 -16 0
v -32 0 0
v -16 0 0
v 0 -16 0
v -16 -16 0
v -16 0 0
v 0 0 0
v -384 -32 0
v -400 -32 0
v -400 -16 0
v -384 -16 0
v 0 -32 0
v -16 -32 0
v -16 -16 0
v 0 -16 0
v -384 -48 0
v -400 -48 0
v -400 -32 0
v -384 -32 0
v 0 -48 0
v -16 -48 0
v -16 -32 0
v 0 -32 0
v -384 -64 0
v -400 -64 0
v -400 -48 0
v -384 -48 0
v 0 -64 0
v -16 -64 0
v -16 -48 0
v 0 -48 0
v -384 -80 0
v -400 -80 0
v -400 -64 0
v -384 -64 0
v -128 -80 0
v -144 -80 0
v -144 -64 0
v -128 -64 0
v -112 -80 0
v -128 -80 0
v -128 -64 0
v -112 -64 0
v -96 -80 0
v -112 -80 0
v -112 -64 0
v -96 -64 0
v -80 -80 0
v -96 -80 0
v -96 -64 0
v -80 -64 0
v -64 -80 0
v -80 -80 0
v -80 -64 0
v -64 -64 0
v 0 -80 0
v -16 -80 0
v -16 -64 0
v 0 -64 0
v -384 -96 0
v -400 -96 0
v -400 -80 0
v -384 -80 0
v -176 -96 0
v -192 -96 0
v -192 -80 0
v -176 -80 0
v -160 -96 0
v -176 -96 0
v -176 -80 0
v -160 -80 0
v -128 -96 0
v -144 -96 0
v -144 -80 0
v -128 -80 0
v -112 -96 0
v -128 -96 0
v -128 -80 0
v -112 -80 0
v -96 -96 0
v -112 -96 0
v -112 -80 0
v -96 -80 0
v -80 -96 0
v -96 -96 0
v -96 -80 0
v -80 -80 0
v -64 -96 0
v -80 -96 0
v -80 -80 0
v -64 -80 0
v 0 -96 0
v -16 -96 0
v -16 -80 0
v 0 -80 0
v -384 -112 0
v -400 -112 0
v -400 -96 0
v -384 -96 0
v -336 -112 0
v -352 -112 0
v -352 -96 0
v -336 -96 0
v -320 -112 0
v -336 -112 0
v -336 -96 0
v -320 -96 0
v -304 -112 0
v -320 -112 0
v -320 -96 0
v -304 -96 0
v -176 -112 0
v -192 -112 0
v -192 -96 0
v -176 -96 0
v -160 -112 0
v -176 -112 0
v -176 -96 0
v -160 -96 0
v -128 -112 0
v -144 -112 0
v -144 -96 0
v -128 -96 0
v -112 -112 0
v -128 -112 0
v -128 -96 0
v -112 -96 0
v -96 -112 0
v -112 -112 0
v -112 -96 0
v -96 -96 0
v -80 -112 0
v -96 -112 0
v -96 -96 0
v -80 -96 0
v -64 -112 0
v -80 -112 0
v -80 -96 0
v -64 -96 0
v 0 -112 0
v -16 -112 0
v -16 -96 0
v 0 -96 0
v -384 -128 0
v -400 -128 0
v -400 -112 0
v -384 -112 0
v -176 -128 0
v -192 -128 0
v -192 -112 0
v -176 -112 0
v -160 -128 0
v -176 -128 0
v -176 -112 0
v -160 -112 0
v -128 -128 0
v -144 -128 0
v -144 -112 0
v -128 -112 0
v -112 -128 0
v -128 -128 0
v -128 -112 0
v -112 -112 0
v -96 -128 0
v -112 -128 0
v -112 -112 0
v -96 -112 0
v -80 -128 0
v -96 -128 0
v -96 -112 0
v -80 -112 0
v -64 -128 0
v -80 -128 0
v -80 -112 0
v -64 -112 0
v 0 -128 0
v -16 -128 0
v -16 -112 0
v 0 -112 0
v -384 -144 0
v -400 -144 0
v -400 -128 0
v -384 -128 0
v -192 -144 0
v -208 -144 0
v -208 -128 0
v -192 -128 0
v -128 -144 0
v -144 -144 0
v -144 -128 0
v -128 -128 0
v -112 -144 0
v -128 -144 0
v -128 -128 0
v -112 -128 0
v -96 -144 0
v -112 -144 0
v -112 -128 0
v -96 -128 0
v -80 -144 0
v -96 -144 0
v -96 -128 0
v -80 -128 0
v -64 -144 0
v -80 -144 0
v -80 -128 0
v -64 -128 0
v 0 -144 0
v -16 -144 0
v -16 -128 0
v 0 -128 0
v -384 -160 0
v -400 -160 0
v -400 -144 0
v -384 -144 0
v -336 -160 0
v -352 -160 0
v -352 -144 0
v -336 -144 0
v -192 -160 0
v -208 -160 0
v -208 -144 0
v -192 -144 0
v 0 -160 0
v -16 -160 0
v -16 -144 0
v 0 -144 0
v -384 -176 0
v -400 -176 0
v -400 -160 0
v -384 -160 0
v 0 -176 0
v -16 -176 0
v -16 -160 0
v 0 -160 0
v -384 -192 0
v -400 -192 0
v -400 -176 0
v -384 -176 0
v 0 -192 0
v -16 -192 0
v -16 -176 0
v 0 -176 0
v -384 -208 0
v -400 -208 0
v -400 -192 0
v -384 -192 0
v -112 -208 0
v -128 -208 0
v -128 -192 0
v -112 -192 0
v 0 -208 0
v -16 -208 0
v -16 -192 0
v 0 -192 0
v -384 -224 0
v -400 -224 0
v -400 -208 0
v -384 -208 0
v 0 -224 0
v -16 -224 0
v -16 -208 0
v 0 -208 0
v -384 -240 0
v -400 -240 0
v -400 -224 0
v -384 -224 0
v 0 -240 0
v -16 -240 0
v -16 -224 0
v 0 -224 0
v -384 -304 0
v -400 -304 0
v -400 -288 0
v -384 -288 0
v 0 -304 0
v -16 -304 0
v -16 -288 0
v 0 -288 0
v -384 -320 0
v -400 -320 0
v -400 -304 0
v -384 -304 0
v -208 -320 0
v -224 -320 0
v -224 -304 0
v -208 -304 0
v 0 -320 0
v -16 -320 0
v -16 -304 0
v 0 -304 0
v -384 -336 0
v -400 -336 0
v -400 -320 0
v -384 -320 0
v -320 -336 0
v -336 -336 0
v -336 -320 0
v -320 -320 0
v -304 -336 0
v -320 -336 0
v -320 -320 0
v -304 -320 0
v 0 -336 0
v -16 -336 0
v -16 -320 0
v 0 -320 0
v -384 -352 0
v -400 -352 0
v -400 -336 0
v -384 -336 0
v -320 -352 0
v -336 -352 0
v -336 -336 0
v -320 -336 0
v -304 -352 0
v -320 -352 0
v -320 -336 0
v -304 -336 0
v -176 -352 0
v -192 -352 0
v -192 -336 0
v -176 -336 0
v 0 -352 0
v -16 -352 0
v -16 -336 0
v 0 -336 0
v -384 -368 0
v -400 -368 0
v -400 -352 0
v -384 -352 0
v -112 -368 0
v -128 -368 0
v -128 -352 0
v -112 -352 0
v 0 -368 0
v -16 -368 0
v -16 -352 0
v 0 -352 0
v -384 -384 0
v -400 -384 0
v -400 -368 0
v -384 -368 0
v 0 -384 0
v -16 -384 0
v -16 -368 0
v 0 -368 0
v -384 -400 0
v -400 -400 0
v -400 -384 0
v -384 -384 0
v -368 -400 0
v -384 -400 0
v -384 -384 0
v -368 -384 0
v -352 -400 0
v -368 -400 0
v -368 -384 0
v -352 -384 0
v -336 -400 0
v -352 -400 0
v -352 -384 0
v -336 -384 0
v -320 -400 0
v -336 -400 0
v -336 -384 0
v -320 -384 0
v -304 -400 0
v -320 -400 0
v -320 -384 0
v -304 -384 0
v -288 -400 0
v -304 -400 0
v -304 -384 0
v -288 -384 0
v -272 -400 0
v -288 -400 0
v -288 -384 0
v -272 -384 0
v -256 -400 0
v -272 -400 0
v -272 -384 0
v -256 -384 0
v -240 -400 0
v -256 -400 0
v -256 -384 0
v -240 -384 0
v -224 -400 0
v -240 -400 0
v -240 -384 0
v -224 -384 0
v -208 -400 0
v -224 -400 0
v -224 -384 0
v -208 -384 0
v -192 -400 0
v -208 -400 0
v -208 -384 0
v -192 -384 0
v -176 -400 0
v -192 -400 0
v -192 -384 0
v -176 -384 0
v -160 -400 0
v -176 -400 0
v -176 -384 0
v -160 -384 0
v -144 -400 0
v -160 -400 0
v -160 -384 0
v -144 -384 0
v -128 -400 0
v -144 -400 0
v -144 -384 0
v -128 -384 0
v -112 -400 0
v -128 -400 0
v -128 -384 0
v -112 -384 0
v -96 -400 0
v -112 -400 0
v -112 -384 0
v -96 -384 0
v -80 -400 0
v -96 -400 0
v -96 -384 0
v -80 -384 0
v -64 -400 0
v -80 -400 0
v -80 -384 0
v -64 -384 0
v -48 -400 0
v -64 -400 0
v -64 -384 0
v -48 -384 0
v -32 -400 0
v -48 -400 0
v -48 -384 0
v -32 -384 0
v -16 -400 0
v -32 -400 0
v -32 -384 0
v -16 -384 0
v 0 -400 0
v -16 -400 0
v -16 -384 0
v 0 -384 0

# Texture cooridinates (Count = 91)
vt 0.075 0.4444444
vt 0.1 0.4444444
vt 0.1 0.4722222
vt 0.075 0.4722222
vt 0.125 0.4444444
vt 0.15 0.4444444
vt 0.15 0.4722222
vt 0.125 0.4722222
vt 0.125 0.5
vt 0.15 0.5
vt 0.15 0.5277778
vt 0.125 0.5277778
vt 0.175 0.5
vt 0.175 0.5277778
vt 0.175 0.4722222
vt 0.2 0.4722222
vt 0.2 0.5
vt 0.25 0.9722222
vt 0.275 0.9722222
vt 0.275 1
vt 0.25 1
vt 0.225 0.9722222
vt 0.225 1
vt 0.2 0.9722222
vt 0.2 1
vt 0.175 0.9722222
vt 0.175 1
vt 0.15 0.9722222
vt 0.15 1
vt 0.35 0.8333333
vt 0.375 0.8333333
vt 0.375 0.8611111
vt 0.35 0.8611111
vt 0.325 0.8333333
vt 0.325 0.8611111
vt 0.25 0.9444444
vt 0.275 0.9444444
vt 0.225 0.9444444
vt 0.2 0.9444444
vt 0.175 0.9444444
vt 0.15 0.9444444
vt 0.125 0.8333333
vt 0.15 0.8333333
vt 0.15 0.8611111
vt 0.125 0.8611111
vt 0.1 0.8333333
vt 0.1 0.8611111
vt 0.075 0.8333333
vt 0.075 0.8611111
vt 0.35 0.8055556
vt 0.375 0.8055556
vt 0.325 0.8055556
vt 0.25 0.9166667
vt 0.275 0.9166667
vt 0.225 0.9166667
vt 0.2 0.9166667
vt 0.175 0.9166667
vt 0.15 0.9166667
vt 0.35 0.7777778
vt 0.375 0.7777778
vt 0.325 0.7777778
vt 0.25 0.8888889
vt 0.275 0.8888889
vt 0.225 0.8888889
vt 0.2 0.8888889
vt 0.175 0.8888889
vt 0.15 0.8888889
vt 0.8 0.9444444
vt 0.825 0.9444444
vt 0.825 0.9722222
vt 0.8 0.9722222
vt 0.25 0.8611111
vt 0.275 0.8611111
vt 0.225 0.8611111
vt 0.2 0.8611111
vt 0.175 0.8611111
vt 0.175 0.8333333
vt 0.2 0.8333333
vt 0.8 0.9166667
vt 0.825 0.9166667
vt 0.15 0.5555556
vt 0.125 0.5555556
vt 0.175 0.5555556
vt 0.35 0.75
vt 0.375 0.75
vt 0.325 0.75
vt 0.35 0.7222222
vt 0.375 0.7222222
vt 0.325 0.7222222
vt 0.2 0.5277778
vt 0.2 0.5555556

# Normal
vn 0 0 -1

# Mesh description
g Room1_mesh_0002

# Faces
f 1/1/1 2/2/1 3/3/1 4/4/1
f 5/5/1 6/6/1 7/7/1 8/8/1
f 9/5/1 10/6/1 11/7/1 12/8/1
f 13/5/1 14/6/1 15/7/1 16/8/1
f 17/5/1 18/6/1 19/7/1 20/8/1
f 21/5/1 22/6/1 23/7/1 24/8/1
f 25/5/1 26/6/1 27/7/1 28/8/1
f 29/9/1 30/10/1 31/11/1 32/12/1
f 33/10/1 34/13/1 35/14/1 36/11/1
f 37/5/1 38/6/1 39/7/1 40/8/1
f 41/5/1 42/6/1 43/7/1 44/8/1
f 45/5/1 46/6/1 47/7/1 48/8/1
f 49/5/1 50/6/1 51/7/1 52/8/1
f 53/5/1 54/6/1 55/7/1 56/8/1
f 57/5/1 58/6/1 59/7/1 60/8/1
f 61/5/1 62/6/1 63/7/1 64/8/1
f 65/5/1 66/6/1 67/7/1 68/8/1
f 69/5/1 70/6/1 71/7/1 72/8/1
f 73/5/1 74/6/1 75/7/1 76/8/1
f 77/5/1 78/6/1 79/7/1 80/8/1
f 81/5/1 82/6/1 83/7/1 84/8/1
f 85/2/1 86/5/1 87/8/1 88/3/1
f 89/7/1 90/15/1 91/13/1 92/10/1
f 93/15/1 94/16/1 95/17/1 96/13/1
f 97/7/1 98/15/1 99/13/1 100/10/1
f 101/15/1 102/16/1 103/17/1 104/13/1
f 105/7/1 106/15/1 107/13/1 108/10/1
f 109/15/1 110/16/1 111/17/1 112/13/1
f 113/7/1 114/15/1 115/13/1 116/10/1
f 117/18/1 118/19/1 119/20/1 120/21/1
f 121/22/1 122/18/1 123/21/1 124/23/1
f 125/24/1 126/22/1 127/23/1 128/25/1
f 129/26/1 130/24/1 131/25/1 132/27/1
f 133/28/1 134/26/1 135/27/1 136/29/1
f 137/15/1 138/16/1 139/17/1 140/13/1
f 141/7/1 142/15/1 143/13/1 144/10/1
f 145/30/1 146/31/1 147/32/1 148/33/1
f 149/34/1 150/30/1 151/33/1 152/35/1
f 153/36/1 154/37/1 155/19/1 156/18/1
f 157/38/1 158/36/1 159/18/1 160/22/1
f 161/39/1 162/38/1 163/22/1 164/24/1
f 165/40/1 166/39/1 167/24/1 168/26/1
f 169/41/1 170/40/1 171/26/1 172/28/1
f 173/15/1 174/16/1 175/17/1 176/13/1
f 177/7/1 178/15/1 179/13/1 180/10/1
f 181/42/1 182/43/1 183/44/1 184/45/1
f 185/46/1 186/42/1 187/45/1 188/47/1
f 189/48/1 190/46/1 191/47/1 192/49/1
f 193/50/1 194/51/1 195/31/1 196/30/1
f 197/52/1 198/50/1 199/30/1 200/34/1
f 201/53/1 202/54/1 203/37/1 204/36/1
f 205/55/1 206/53/1 207/36/1 208/38/1
f 209/56/1 210/55/1 211/38/1 212/39/1
f 213/57/1 214/56/1 215/39/1 216/40/1
f 217/58/1 218/57/1 219/40/1 220/41/1
f 221/15/1 222/16/1 223/17/1 224/13/1
f 225/7/1 226/15/1 227/13/1 228/10/1
f 229/59/1 230/60/1 231/51/1 232/50/1
f 233/61/1 234/59/1 235/50/1 236/52/1
f 237/62/1 238/63/1 239/54/1 240/53/1
f 241/64/1 242/62/1 243/53/1 244/55/1
f 245/65/1 246/64/1 247/55/1 248/56/1
f 249/66/1 250/65/1 251/56/1 252/57/1
f 253/67/1 254/66/1 255/57/1 256/58/1
f 257/15/1 258/16/1 259/17/1 260/13/1
f 261/7/1 262/15/1 263/13/1 264/10/1
f 265/68/1 266/69/1 267/70/1 268/71/1
f 269/72/1 270/73/1 271/63/1 272/62/1
f 273/74/1 274/72/1 275/62/1 276/64/1
f 277/75/1 278/74/1 279/64/1 280/65/1
f 281/76/1 282/75/1 283/65/1 284/66/1
f 285/44/1 286/76/1 287/66/1 288/67/1
f 289/15/1 290/16/1 291/17/1 292/13/1
f 293/7/1 294/15/1 295/13/1 296/10/1
f 297/77/1 298/78/1 299/75/1 300/76/1
f 301/79/1 302/80/1 303/69/1 304/68/1
f 305/15/1 306/16/1 307/17/1 308/13/1
f 309/7/1 310/15/1 311/13/1 312/10/1
f 313/15/1 314/16/1 315/17/1 316/13/1
f 317/7/1 318/15/1 319/13/1 320/10/1
f 321/15/1 322/16/1 323/17/1 324/13/1
f 325/7/1 326/15/1 327/13/1 328/10/1
f 329/77/1 330/78/1 331/75/1 332/76/1
f 333/15/1 334/16/1 335/17/1 336/13/1
f 337/7/1 338/15/1 339/13/1 340/10/1
f 341/15/1 342/16/1 343/17/1 344/13/1
f 345/9/1 346/10/1 347/11/1 348/12/1
f 349/10/1 350/13/1 351/14/1 352/11/1
f 353/12/1 354/11/1 355/81/1 356/82/1
f 357/11/1 358/14/1 359/83/1 360/81/1
f 361/7/1 362/15/1 363/13/1 364/10/1
f 365/77/1 366/78/1 367/75/1 368/76/1
f 369/15/1 370/16/1 371/17/1 372/13/1
f 373/7/1 374/15/1 375/13/1 376/10/1
f 377/84/1 378/85/1 379/60/1 380/59/1
f 381/86/1 382/84/1 383/59/1 384/61/1
f 385/15/1 386/16/1 387/17/1 388/13/1
f 389/7/1 390/15/1 391/13/1 392/10/1
f 393/87/1 394/88/1 395/85/1 396/84/1
f 397/89/1 398/87/1 399/84/1 400/86/1
f 401/77/1 402/78/1 403/75/1 404/76/1
f 405/15/1 406/16/1 407/17/1 408/13/1
f 409/7/1 410/15/1 411/13/1 412/10/1
f 413/77/1 414/78/1 415/75/1 416/76/1
f 417/15/1 418/16/1 419/17/1 420/13/1
f 421/7/1 422/15/1 423/13/1 424/10/1
f 425/15/1 426/16/1 427/17/1 428/13/1
f 429/14/1 430/90/1 431/91/1 432/83/1
f 433/8/1 434/7/1 435/10/1 436/9/1
f 437/8/1 438/7/1 439/10/1 440/9/1
f 441/8/1 442/7/1 443/10/1 444/9/1
f 445/8/1 446/7/1 447/10/1 448/9/1
f 449/8/1 450/7/1 451/10/1 452/9/1
f 453/8/1 454/7/1 455/10/1 456/9/1
f 457/8/1 458/7/1 459/10/1 460/9/1
f 461/8/1 462/7/1 463/10/1 464/9/1
f 465/8/1 466/7/1 467/10/1 468/9/1
f 469/8/1 470/7/1 471/10/1 472/9/1
f 473/8/1 474/7/1 475/10/1 476/9/1
f 477/8/1 478/7/1 479/10/1 480/9/1
f 481/8/1 482/7/1 483/10/1 484/9/1
f 485/8/1 486/7/1 487/10/1 488/9/1
f 489/8/1 490/7/1 491/10/1 492/9/1
f 493/8/1 494/7/1 495/10/1 496/9/1
f 497/8/1 498/7/1 499/10/1 500/9/1
f 501/8/1 502/7/1 503/10/1 504/9/1
f 505/8/1 506/7/1 507/10/1 508/9/1
f 509/8/1 510/7/1 511/10/1 512/9/1
f 513/8/1 514/7/1 515/10/1 516/9/1
f 517/8/1 518/7/1 519/10/1 520/9/1
f 521/8/1 522/7/1 523/10/1 524/9/1
f 525/13/1 526/17/1 527/90/1 528/14/1

